<svg width="80" height="62" fill="none" xmlns="http://www.w3.org/2000/svg"><path d="M79.781 28.87l-6.202-13.428a2.36 2.36 0 00-2.142-1.372H51.93V2.365A2.363 2.363 0 0049.571 0H2.361A2.363 2.363 0 000 2.365v39.807a2.363 2.363 0 002.36 2.365h4.623a12.277 12.277 0 00-.88 2.748H2.36A2.363 2.363 0 000 49.65a2.363 2.363 0 002.36 2.366h3.743C7.207 57.697 12.21 62 18.198 62s10.99-4.303 12.095-9.984H49.99C51.096 57.697 56.098 62 62.086 62c5.987 0 10.989-4.303 12.094-9.984h3.46c1.304 0 2.36-1.06 2.36-2.366V29.864c0-.344-.075-.683-.219-.994zm-29.79 18.415h-19.7a12.26 12.26 0 00-.88-2.748h20.16a2.35 2.35 0 001.615-.644 12.27 12.27 0 00-1.197 3.392zM4.72 4.73h42.49v35.076H25.63a12.241 12.241 0 00-7.433-2.507c-2.79 0-5.366.935-7.433 2.507H4.72V4.73zm13.477 52.538c-4.193 0-7.604-3.418-7.604-7.619 0-4.202 3.411-7.62 7.604-7.62 4.192 0 7.603 3.418 7.603 7.62 0 4.201-3.41 7.62-7.603 7.62zm43.887 0c-4.192 0-7.603-3.418-7.603-7.619 0-4.202 3.41-7.62 7.603-7.62 4.192 0 7.603 3.418 7.603 7.62 0 4.201-3.41 7.62-7.603 7.62zm13.194-9.984h-1.1c-1.105-5.683-6.106-9.986-12.094-9.986-4.26 0-8.02 2.178-10.235 5.48.051-.194.082-.397.082-.607v-23.37h17.997l5.35 11.583v16.9z" fill="#fff"/></svg>