<svg width="74" height="74" fill="none" xmlns="http://www.w3.org/2000/svg"><path d="M71.319 0H40.813a2.68 2.68 0 00-1.896.785L.785 38.918a2.68 2.68 0 000 3.791l30.506 30.506c.524.523 1.21.785 1.896.785.686 0 1.372-.262 1.896-.785l38.132-38.133A2.682 2.682 0 0074 33.188V2.68C74 1.201 72.8 0 71.319 0zm-2.681 32.076L33.187 67.527 6.473 40.813l35.45-35.45h26.715v26.713z" fill="#fff"/><path d="M56.24 25.9c2.175 0 4.22-.847 5.759-2.384 3.175-3.174 3.175-8.338 0-11.512a8.094 8.094 0 00-5.76-2.384c-2.174 0-4.22.847-5.758 2.384-3.175 3.174-3.175 8.338 0 11.512a8.094 8.094 0 005.76 2.384zm-1.934-10.073a2.718 2.718 0 011.934-.801c.73 0 1.418.284 1.934.8a2.736 2.736 0 010 3.867c-.516.516-1.203.8-1.934.8-.73 0-1.418-.284-1.934-.8a2.737 2.737 0 010-3.867z" fill="#fff"/></svg>