<svg width="73" height="78" fill="none" xmlns="http://www.w3.org/2000/svg"><path d="M73 18.939c0-.834-.38-1.583-.982-2.095L55.346.818A2.967 2.967 0 0053.29 0H19.702a2.97 2.97 0 00-2.057.818L.851 16.962v.002a2.758 2.758 0 00-.253.282l-.052.067c-.074.1-.143.202-.204.31l-.01.024a2.65 2.65 0 00-.147.319c-.008.022-.018.044-.025.066a2.746 2.746 0 00-.103.36l-.002.012a2.645 2.645 0 00-.05.442c-.001.03-.005.062-.005.093v56.266C0 76.749 1.302 78 2.908 78h67.177c1.606 0 2.908-1.251 2.908-2.795V19.083c.002-.048.007-.096.007-.144zm-9.936-2.796H47.155L44.367 5.591h7.718l10.979 10.552zm-32.057 5.591h10.978v22.542H31.007V21.734zm7.36-16.143l2.787 10.552h-9.317l2.788-10.552h3.742zm-17.461 0h7.719l-2.788 10.552H9.927l10.98-10.552zm46.27 66.818H5.817V21.734H25.19v25.338c0 1.543 1.301 2.795 2.908 2.795h16.794c1.606 0 2.908-1.252 2.908-2.795V21.734h19.376v50.675z" fill="#fff"/><path d="M24.515 63.747H11.92c-1.606 0-2.907 1.251-2.907 2.795s1.301 2.795 2.907 2.795h12.596c1.607 0 2.908-1.251 2.908-2.795s-1.302-2.795-2.908-2.795zm0-7.636H11.92c-1.606 0-2.907 1.252-2.907 2.795 0 1.544 1.301 2.796 2.907 2.796h12.596c1.607 0 2.908-1.252 2.908-2.796 0-1.544-1.302-2.795-2.908-2.795z" fill="#fff"/></svg>