<svg width="80" height="65" fill="none" xmlns="http://www.w3.org/2000/svg"><path d="M77.975 33.675L72.476 33a19.018 19.018 0 00-.278-.67l3.407-4.342a2.287 2.287 0 00-.188-3.036L69.8 19.367a2.318 2.318 0 00-3.052-.187l-4.368 3.387a18.665 18.665 0 00-.672-.276l-.678-5.466a2.304 2.304 0 00-2.292-2.015h-7.943a2.304 2.304 0 00-2.291 2.014l-.68 5.466c-.225.088-.45.18-.671.277l-4.368-3.388a2.318 2.318 0 00-3.052.187L38.08 21.01v-5.037a1.84 1.84 0 00-1.62-1.823l-4.055-.5a17.742 17.742 0 00-.158-.378l2.513-3.204a1.83 1.83 0 00-.15-2.429l-4.213-4.188a1.854 1.854 0 00-2.442-.15l-3.22 2.5a13.794 13.794 0 00-.382-.158l-.502-4.032A1.844 1.844 0 0022.018 0h-5.956c-.932 0-1.718.69-1.833 1.61l-.502 4.033c-.128.05-.255.103-.38.157l-3.222-2.499a1.855 1.855 0 00-2.442.15L3.471 7.64a1.83 1.83 0 00-.15 2.428l2.512 3.205c-.054.125-.107.251-.157.378l-4.056.5A1.84 1.84 0 000 15.972v5.925c0 .927.695 1.71 1.62 1.823l4.056.497c.05.128.103.254.157.38L3.321 27.8a1.83 1.83 0 00.15 2.428l4.212 4.191c.66.656 1.707.72 2.442.15l3.223-2.499c.125.054.252.106.38.156l.502 4.034c.114.92.9 1.611 1.833 1.611h5.956c.932 0 1.718-.69 1.833-1.61l.502-4.034c.127-.05.254-.103.38-.157l3.222 2.5c.555.43 1.287.498 1.896.224a2.277 2.277 0 00-.318 1.16v7.9a2.3 2.3 0 002.026 2.279l5.497.675c.089.224.181.447.278.668l-3.407 4.343a2.287 2.287 0 00.188 3.035l5.617 5.588c.824.82 2.133.9 3.052.187l4.368-3.389c.222.096.445.188.671.276l.68 5.469A2.304 2.304 0 0050.794 65h7.944a2.304 2.304 0 002.291-2.015l.68-5.468c.225-.088.45-.18.671-.276l4.369 3.39a2.318 2.318 0 003.052-.188l5.617-5.587c.824-.82.904-2.122.187-3.036l-3.407-4.342c.097-.22.19-.444.28-.669l5.497-.675A2.3 2.3 0 0080 43.855v-7.9c0-1.16-.869-2.137-2.025-2.28zm-43.86-8.722a2.281 2.281 0 00-.636 1.215l-1.232-1.57c.055-.126.108-.252.159-.38l2.793-.343-1.083 1.078zm-5.175 5.72l-2.838-2.2a1.855 1.855 0 00-2.011-.17 10.58 10.58 0 01-1.961.807 1.841 1.841 0 00-1.302 1.534l-.442 3.554h-2.692l-.443-3.554a1.84 1.84 0 00-1.3-1.534 10.56 10.56 0 01-1.96-.806 1.855 1.855 0 00-2.012.169l-2.838 2.201-1.905-1.894 2.214-2.822c.45-.574.517-1.358.17-2a10.602 10.602 0 01-.812-1.953 1.843 1.843 0 00-1.542-1.293l-3.572-.438v-2.677l3.573-.44a1.845 1.845 0 001.541-1.292c.207-.682.48-1.34.812-1.953a1.829 1.829 0 00-.17-2L7.237 9.09l1.904-1.892 2.839 2.201a1.856 1.856 0 002.013.168 10.57 10.57 0 011.96-.808 1.84 1.84 0 001.299-1.532l.443-3.552h2.692l.442 3.552c.09.722.6 1.322 1.3 1.532.684.206 1.344.478 1.962.81a1.857 1.857 0 002.012-.17l2.838-2.2 1.903 1.892-2.214 2.823a1.828 1.828 0 00-.169 2.001c.33.61.604 1.267.814 1.954.212.695.816 1.2 1.54 1.29l3.572.44v2.676l-3.57.439a1.844 1.844 0 00-1.543 1.292 10.56 10.56 0 01-.814 1.953 1.828 1.828 0 00.17 2l2.214 2.823-1.904 1.893zm2.62 3.003a2.276 2.276 0 00-.557.141l3.606-3.588a1.82 1.82 0 00.461-.784l2.264 2.886c-.096.221-.19.444-.278.669l-5.497.675zm43.823 8.148l-4.897.602a2.306 2.306 0 00-1.927 1.615 14.177 14.177 0 01-1.097 2.63 2.286 2.286 0 00.211 2.503l3.036 3.87-2.73 2.717-3.892-3.02a2.32 2.32 0 00-2.514-.212c-.834.447-1.725.813-2.648 1.091a2.299 2.299 0 00-1.623 1.916l-.605 4.872h-3.862l-.605-4.872a2.3 2.3 0 00-1.623-1.916 14.456 14.456 0 01-2.648-1.09 2.318 2.318 0 00-2.514.211l-3.891 3.02-2.73-2.717 3.035-3.87a2.285 2.285 0 00.213-2.5 14.289 14.289 0 01-1.097-2.633 2.304 2.304 0 00-1.927-1.615l-4.898-.602v-3.84l4.898-.602a2.306 2.306 0 001.927-1.615 14.26 14.26 0 011.096-2.633 2.286 2.286 0 00-.212-2.5l-3.035-3.87 2.73-2.715 3.892 3.018c.722.56 1.707.643 2.513.212a14.394 14.394 0 012.646-1.09 2.3 2.3 0 001.625-1.917l.605-4.87h3.862l.605 4.87a2.3 2.3 0 001.625 1.917c.919.276 1.81.642 2.647 1.09.805.43 1.79.348 2.512-.212l3.892-3.017 2.731 2.715-3.035 3.869a2.286 2.286 0 00-.213 2.5c.449.829.817 1.714 1.096 2.633a2.304 2.304 0 001.927 1.615l4.9.602v3.84h-.001z" fill="#fff"/><path d="M54.766 29.299c-5.88 0-10.664 4.758-10.664 10.606s4.784 10.606 10.664 10.606S65.43 45.753 65.43 39.905s-4.784-10.607-10.664-10.607zm0 16.62c-3.334 0-6.047-2.698-6.047-6.014 0-3.316 2.713-6.014 6.047-6.014 3.334 0 6.047 2.698 6.047 6.014 0 3.316-2.713 6.014-6.047 6.014zM19.04 10.866c-4.473 0-8.113 3.62-8.113 8.07s3.64 8.07 8.113 8.07c4.475 0 8.115-3.62 8.115-8.07s-3.64-8.07-8.115-8.07zm0 12.466c-2.437 0-4.419-1.973-4.419-4.396 0-2.424 1.982-4.396 4.419-4.396 2.438 0 4.42 1.972 4.42 4.396.001 2.424-1.982 4.396-4.42 4.396z" fill="#fff"/></svg>