<svg width="74" height="74" viewBox="0 0 74 74" fill="none" xmlns="http://www.w3.org/2000/svg">
<path d="M71.3189 0H40.8129C40.1019 0 39.4198 0.282413 38.9168 0.785393L0.785305 38.9175C-0.261768 39.9646 -0.261768 41.6623 0.785305 42.709L31.2909 73.2146C31.8146 73.738 32.501 74 33.187 74C33.873 74 34.5594 73.7383 35.0831 73.2146L73.215 35.0825C73.7176 34.5798 74 33.8977 74 33.1867V2.68113C74 1.20043 72.7999 0 71.3189 0ZM68.6377 32.0764L33.1867 67.5274L6.47253 40.8133L41.9236 5.36227H68.6381V32.0764H68.6377Z" fill="white"/>
<path d="M56.2401 25.9C58.4152 25.9 60.4604 25.0534 61.999 23.5158C65.174 20.3419 65.1736 15.1777 61.9983 12.0038C60.46 10.4666 58.4148 9.62 56.2398 9.62C54.0647 9.62 52.0195 10.4666 50.4812 12.0042C47.3063 15.1781 47.3063 20.3423 50.4812 23.5162C52.0195 25.0534 54.0647 25.9 56.2401 25.9ZM54.3063 15.8265C54.8227 15.3104 55.5096 15.026 56.2398 15.026C56.9703 15.026 57.6576 15.3104 58.1736 15.8265C59.2402 16.8926 59.2402 18.627 58.1743 19.6928C57.6576 20.2093 56.9707 20.4936 56.2401 20.4936C55.5096 20.4936 54.8223 20.2093 54.3063 19.6931C53.2401 18.627 53.2401 16.8926 54.3063 15.8265Z" fill="white"/>
</svg>
