<svg width="73" height="78" viewBox="0 0 73 78" fill="none" xmlns="http://www.w3.org/2000/svg">
<path d="M73 18.9387C73 18.105 72.62 17.3562 72.0179 16.8441L55.346 0.818463C54.8005 0.294065 54.0611 0 53.29 0H40.6286H32.3636H19.7015C18.9303 0 18.1906 0.294065 17.6451 0.818463L0.85143 16.9622C0.851042 16.9626 0.850654 16.9634 0.850266 16.9637C0.759152 17.0513 0.676181 17.1467 0.598249 17.2455C0.580414 17.2679 0.562579 17.2899 0.545907 17.3126C0.471853 17.4121 0.40284 17.5153 0.342355 17.6238C0.338091 17.6312 0.334989 17.6391 0.331112 17.6469C0.274892 17.7494 0.227203 17.8564 0.184942 17.9656C0.1768 17.9879 0.167494 18.0099 0.15974 18.0323C0.118254 18.1493 0.0825841 18.2682 0.0569947 18.3912C0.0558316 18.3957 0.0554436 18.3998 0.0546682 18.4042C0.0317928 18.5164 0.0182228 18.6316 0.0100807 18.7483C0.00775438 18.7807 0.00620331 18.8131 0.00504016 18.8459C0.003877 18.8768 0 18.9078 0 18.9391V75.2047C0 76.7485 1.30196 78 2.90789 78H70.0847C71.6911 78 72.9926 76.7485 72.9926 75.2047V19.0829C72.995 19.0349 73 18.9872 73 18.9387ZM63.0639 16.1434H47.1551L44.367 5.5906H52.0853L63.0639 16.1434ZM31.0066 21.734H41.9852V44.2764H31.0066V21.734ZM38.3667 5.5906L41.1544 16.1434H31.8375L34.6252 5.5906H38.3667ZM20.9058 5.5906H28.6249L25.8368 16.1434H9.92792L20.9058 5.5906ZM67.1765 72.4094H5.81539V21.734H25.1908V47.0717C25.1908 48.6155 26.4924 49.867 28.0987 49.867H44.8931C46.4995 49.867 47.801 48.6155 47.801 47.0717V21.734H67.1765V72.4094Z" fill="white"/>
<path d="M24.5153 63.7466H11.9195C10.3132 63.7466 9.0116 64.9981 9.0116 66.5419C9.0116 68.0856 10.3132 69.3372 11.9195 69.3372H24.5153C26.1216 69.3372 27.4232 68.0856 27.4232 66.5419C27.4232 64.9981 26.1212 63.7466 24.5153 63.7466Z" fill="white"/>
<path d="M24.5153 56.111H11.9195C10.3132 56.111 9.0116 57.3625 9.0116 58.9063C9.0116 60.45 10.3132 61.7016 11.9195 61.7016H24.5153C26.1216 61.7016 27.4232 60.45 27.4232 58.9063C27.4232 57.3625 26.1212 56.111 24.5153 56.111Z" fill="white"/>
</svg>
