<svg width="80" height="62" viewBox="0 0 80 62" fill="none" xmlns="http://www.w3.org/2000/svg">
<path d="M79.781 28.87L73.5787 15.4423C73.192 14.6059 72.3561 14.0704 71.4366 14.0704H51.9314V2.3653C51.9314 1.05903 50.875 0 49.5712 0H2.36019C1.05642 0 0 1.05903 0 2.3653V42.1721C0 43.4784 1.05642 44.5374 2.36019 44.5374H6.98333C6.58807 45.4047 6.28943 46.3246 6.1025 47.285H2.36019C1.05642 47.285 0 48.344 0 49.6503C0 50.9565 1.05642 52.0156 2.36019 52.0156H6.10282C7.20739 57.6973 12.2097 62 18.1983 62C24.186 62 29.188 57.697 30.2925 52.0156H49.991C51.0956 57.6973 56.0976 62 62.0859 62C68.0732 62 73.0749 57.697 74.1795 52.0156H77.6398C78.9436 52.0156 80 50.9565 80 49.6503V29.8637C79.9994 29.5203 79.9251 29.1812 79.781 28.87ZM49.9904 47.2846H30.2922C30.1056 46.3243 29.8067 45.4044 29.4114 44.5371H49.5715C50.1971 44.5371 50.7645 44.2914 51.1868 43.8931C50.6317 44.9436 50.2242 46.0831 49.9904 47.2846ZM4.72038 4.73061H47.211V39.8068H25.6307C23.5629 38.2347 20.9877 37.2996 18.198 37.2996C15.4083 37.2996 12.8325 38.2347 10.7647 39.8068H4.72038V4.73061ZM18.198 57.2691C14.005 57.2691 10.5938 53.8511 10.5938 49.65C10.5938 45.4482 14.005 42.0299 18.198 42.0299C22.3903 42.0299 25.8009 45.4482 25.8009 49.65C25.8009 53.8511 22.3903 57.2691 18.198 57.2691ZM62.0852 57.2691C57.8926 57.2691 54.4816 53.8511 54.4816 49.65C54.4816 45.4482 57.8926 42.0299 62.0852 42.0299C66.2772 42.0299 69.6876 45.4482 69.6876 49.65C69.6876 53.8511 66.2772 57.2691 62.0852 57.2691ZM75.279 47.2846H74.1788C73.0743 41.6022 68.0732 37.2993 62.0852 37.2993C57.8259 37.2993 54.065 39.4766 51.8505 42.7786C51.9015 42.5846 51.9317 42.3822 51.9317 42.1721V18.801H69.9286L75.279 30.3844V47.2846Z" fill="white"/>
</svg>
