<svg width="80" height="65" viewBox="0 0 80 65" fill="none" xmlns="http://www.w3.org/2000/svg">
<path d="M77.9746 33.6755L72.4761 32.9996C72.3875 32.7746 72.2948 32.5517 72.1979 32.3307L75.605 27.9879C76.3222 27.0738 76.2413 25.7715 75.4173 24.9517L69.7997 19.3669C68.9754 18.5474 67.6662 18.4675 66.748 19.1802L62.3805 22.5669C62.1582 22.4705 61.9344 22.3783 61.7082 22.2905L61.0295 16.8245C60.8867 15.674 59.9041 14.8098 58.7384 14.8098H50.7947C49.6293 14.8098 48.6465 15.6737 48.5036 16.8242L47.8243 22.2905C47.599 22.3783 47.3746 22.4705 47.153 22.5666L42.7848 19.1789C41.8657 18.4662 40.5565 18.5461 39.7325 19.366L38.0802 21.0096V15.9731C38.0802 15.0458 37.3854 14.264 36.4601 14.1501L32.4047 13.6508C32.3539 13.5237 32.3013 13.3973 32.2471 13.2724L34.7598 10.0678C35.3329 9.33644 35.2686 8.29498 34.6093 7.63924L30.3972 3.45104C29.7378 2.79561 28.6903 2.73101 27.9553 3.30164L24.7346 5.8003C24.6084 5.74612 24.481 5.69377 24.3529 5.64326L23.8509 1.61118C23.7364 0.691248 22.9502 0 22.0182 0H16.062C15.1299 0 14.3438 0.690942 14.2293 1.61087L13.7266 5.64326C13.5989 5.69377 13.4721 5.74581 13.3465 5.8L10.1246 3.30134C9.38922 2.73132 8.34235 2.79591 7.68301 3.45073L3.47059 7.63955C2.81095 8.29529 2.74662 9.33675 3.32007 10.0681L5.83306 13.273C5.77888 13.3982 5.72625 13.5243 5.67576 13.6514L1.62002 14.1504C0.694734 14.2643 0 15.0461 0 15.9731V21.8977C0 22.825 0.69535 23.6071 1.62064 23.7207L5.67607 24.2185C5.72655 24.3455 5.77919 24.472 5.83336 24.5972L3.32069 27.8009C2.74723 28.5319 2.81156 29.5737 3.47059 30.2294L7.68332 34.4204C8.34235 35.0758 9.38984 35.1407 10.1252 34.5701L13.3477 32.0711C13.4733 32.125 13.5998 32.177 13.7272 32.2272L14.2299 36.2611C14.3444 37.1814 15.1306 37.8723 16.0626 37.8723H22.0188C22.9508 37.8723 23.7373 37.1814 23.8518 36.2611L24.3536 32.2278C24.4813 32.1773 24.6084 32.125 24.7346 32.0711L27.9559 34.5701C28.5112 35.0005 29.2429 35.0685 29.8523 34.7945C29.6504 35.1364 29.5344 35.5335 29.5344 35.955V43.8551C29.5344 45.0144 30.403 45.9916 31.5601 46.1336L37.0573 46.809C37.1456 47.0334 37.2383 47.2559 37.335 47.4766L33.9284 51.82C33.2118 52.7339 33.2924 54.0358 34.1161 54.8554L39.7325 60.4429C40.5565 61.263 41.866 61.3426 42.7851 60.6299L47.153 57.2411C47.3746 57.3372 47.5984 57.4293 47.8243 57.5172L48.5036 62.9856C48.6465 64.1361 49.6293 65 50.7947 65H58.7384C59.9041 65 60.8867 64.1358 61.0295 62.9853L61.7082 57.5175C61.9341 57.4293 62.1582 57.3372 62.3802 57.2411L66.7486 60.6303C67.6678 61.3432 68.9769 61.2633 69.8012 60.4432L75.4176 54.8557C76.2419 54.0358 76.3222 52.7339 75.605 51.82L72.1985 47.4779C72.2954 47.2571 72.3887 47.034 72.4774 46.8093L77.9746 46.1336C79.1313 45.9916 80 45.0141 80 43.8551V35.955C80 34.7954 79.1313 33.8179 77.9746 33.6755ZM34.1158 24.9526C33.772 25.2945 33.5596 25.721 33.4787 26.1676L32.2474 24.5978C32.3019 24.4723 32.3545 24.3458 32.4056 24.2185L35.199 23.8753L34.1158 24.9526ZM28.9397 30.6739L26.1025 28.4728C25.5248 28.0249 24.7362 27.9582 24.091 28.3038C23.4741 28.6341 22.8145 28.9054 22.1296 29.1102C21.4287 29.3199 20.9181 29.9211 20.8282 30.6436L20.3855 34.1981H17.6943L17.2514 30.6436C17.1615 29.9217 16.6518 29.3205 15.9512 29.1105C15.2641 28.9048 14.6048 28.6335 13.9913 28.3044C13.3465 27.9588 12.5569 28.0246 11.9792 28.4728L9.14051 30.6742L7.23638 28.7799L9.44986 25.9579C9.90019 25.3842 9.96729 24.5999 9.6207 23.9589C9.28795 23.3426 9.01431 22.6851 8.80776 22.0045C8.59691 21.3081 7.99206 20.8011 7.26593 20.712L3.69376 20.2737V17.5968L7.26685 17.1569C7.99206 17.0675 8.5966 16.5612 8.80807 15.865C9.01523 15.1827 9.28857 14.5257 9.62039 13.9125C9.9676 13.2712 9.90081 12.4866 9.45048 11.9122L7.23699 9.08939L9.14082 7.19657L11.9798 9.39828C12.5569 9.84616 13.3471 9.91228 13.9926 9.56635C14.6073 9.23634 15.2672 8.96449 15.9536 8.75785C16.6533 8.54754 17.1621 7.94691 17.252 7.22566L17.6949 3.6736H20.3865L20.8288 7.22566C20.9184 7.94752 21.4281 8.54846 22.1284 8.75846C22.8129 8.96388 23.4732 9.23603 24.0913 9.56727C24.7359 9.91259 25.5254 9.84646 26.1032 9.39859L28.9406 7.19719L30.8438 9.0897L28.6303 11.9129C28.1797 12.4875 28.1132 13.2727 28.461 13.9141C28.7913 14.5233 29.0649 15.1808 29.2749 15.8678C29.4866 16.5627 30.0906 17.0681 30.8152 17.1572L34.387 17.5971V20.2743L30.8161 20.7127C30.0903 20.8017 29.4854 21.3087 29.2743 22.0051C29.0686 22.6826 28.7947 23.3399 28.4601 23.9583C28.1129 24.5996 28.1797 25.3842 28.6303 25.9585L30.8438 28.7805L28.9397 30.6739ZM31.5591 33.6755C31.3643 33.6994 31.1787 33.749 31.0026 33.8173L34.6093 30.2288C34.8352 30.0038 34.986 29.7322 35.0704 29.4448L37.3343 32.3313C37.2377 32.552 37.1447 32.7749 37.0564 32.9999L31.5591 33.6755ZM75.3828 41.8245L70.4855 42.4261C69.5787 42.5375 68.823 43.1709 68.5586 44.0409C68.2803 44.9575 67.9109 45.8425 67.4615 46.6718C67.0269 47.4739 67.1097 48.4557 67.6733 49.1741L70.7093 53.044L67.9787 55.7606L64.087 52.7412C63.3649 52.1813 62.3792 52.0983 61.5734 52.5294C60.7392 52.9757 59.8484 53.3424 58.925 53.6201C58.0502 53.8831 57.4136 54.6343 57.3019 55.5365L56.697 60.4077H52.8352L52.23 55.5362C52.118 54.6343 51.4817 53.8834 50.6072 53.6201C49.6841 53.3424 48.793 52.9754 47.9591 52.5294C47.1533 52.098 46.167 52.181 45.4455 52.7412L41.5538 55.7603L38.8235 53.0437L41.8586 49.1738C42.4213 48.4563 42.505 47.4763 42.0716 46.6746C41.6222 45.8428 41.2534 44.9569 40.9752 44.0412C40.7114 43.1709 39.9554 42.5372 39.0482 42.4261L34.1503 41.8245V37.9841L39.0482 37.3819C39.9554 37.2705 40.711 36.6368 40.9752 35.7667C41.2537 34.8483 41.6228 33.9627 42.071 33.1337C42.5047 32.3322 42.4213 31.3514 41.8586 30.6338L38.8235 26.7643L41.5541 24.0486L45.4458 27.0667C46.1676 27.6267 47.1533 27.7096 47.9585 27.2786C48.7958 26.831 49.6863 26.4646 50.6051 26.1891C51.4808 25.9267 52.118 25.1748 52.23 24.2724L52.8352 19.4021H56.697L57.3019 24.2724C57.4139 25.1752 58.0517 25.927 58.9271 26.1894C59.8459 26.4646 60.7364 26.8313 61.574 27.2789C62.3792 27.7096 63.3649 27.6267 64.0864 27.0674L67.9781 24.0498L70.709 26.7649L67.6736 30.6338C67.1103 31.352 67.0269 32.3332 67.4612 33.1349C67.9097 33.9627 68.2782 34.8483 68.5574 35.767C68.8212 36.6374 69.5771 37.2708 70.4843 37.3822L75.3834 37.9844V41.8245H75.3828Z" fill="white"/>
<path d="M54.7661 29.2985C48.8856 29.2985 44.1019 34.0567 44.1019 39.9054C44.1019 45.7534 48.8856 50.511 54.7661 50.511C60.6465 50.511 65.4302 45.7534 65.4302 39.9054C65.4299 34.0567 60.6462 29.2985 54.7661 29.2985ZM54.7661 45.919C51.4318 45.919 48.7191 43.2214 48.7191 39.9054C48.7191 36.5887 51.4318 33.8905 54.7661 33.8905C58.1003 33.8905 60.813 36.5887 60.813 39.9054C60.8127 43.2214 58.1003 45.919 54.7661 45.919Z" fill="white"/>
<path d="M19.0398 10.8662C14.5666 10.8662 10.9274 14.4862 10.9274 18.9356C10.9274 23.3852 14.5666 27.0052 19.0398 27.0052C23.5145 27.0052 27.1547 23.3852 27.1547 18.9356C27.155 14.4859 23.5148 10.8662 19.0398 10.8662ZM19.0398 23.3316C16.6031 23.3316 14.6211 21.3595 14.6211 18.9356C14.6211 16.5116 16.6031 14.5398 19.0398 14.5398C21.4777 14.5398 23.4609 16.5116 23.4609 18.9356C23.4612 21.3598 21.4777 23.3316 19.0398 23.3316Z" fill="white"/>
</svg>
